<mxfile host="app.diagrams.net" modified="2021-04-27T20:03:48.100Z" agent="5.0 (Windows NT 10.0; Win64; x64) AppleWebKit/537.36 (KHTML, like Gecko) Chrome/90.0.4430.85 Safari/537.36" etag="VKSWwIWvqXt5m4FEIGUH" version="14.6.6" type="github" pages="3">
  <diagram id="00MQPMrcNSDIFYsgVaVk" name="Page-1">
    <mxGraphModel dx="1038" dy="548" grid="1" gridSize="10" guides="1" tooltips="1" connect="1" arrows="1" fold="1" page="1" pageScale="1" pageWidth="827" pageHeight="1169" math="0" shadow="0">
      <root>
        <mxCell id="0" />
        <mxCell id="1" parent="0" />
        <mxCell id="gAnLOvwSJcXtLlbk8rEZ-1" value="Actor" style="shape=umlActor;verticalLabelPosition=bottom;verticalAlign=top;html=1;outlineConnect=0;" parent="1" vertex="1">
          <mxGeometry x="90" y="100" width="30" height="60" as="geometry" />
        </mxCell>
        <mxCell id="gAnLOvwSJcXtLlbk8rEZ-2" value="Application" style="rounded=1;whiteSpace=wrap;html=1;" parent="1" vertex="1">
          <mxGeometry x="270" y="100" width="120" height="60" as="geometry" />
        </mxCell>
        <mxCell id="gAnLOvwSJcXtLlbk8rEZ-3" value="" style="rounded=1;whiteSpace=wrap;html=1;direction=south;" parent="1" vertex="1">
          <mxGeometry x="90" y="230" width="20" height="120" as="geometry" />
        </mxCell>
        <mxCell id="gAnLOvwSJcXtLlbk8rEZ-4" value="" style="rounded=1;whiteSpace=wrap;html=1;direction=south;" parent="1" vertex="1">
          <mxGeometry x="310" y="230" width="20" height="120" as="geometry" />
        </mxCell>
        <mxCell id="gAnLOvwSJcXtLlbk8rEZ-5" value="" style="endArrow=classic;html=1;exitX=0.25;exitY=0;exitDx=0;exitDy=0;" parent="1" source="gAnLOvwSJcXtLlbk8rEZ-3" edge="1">
          <mxGeometry width="50" height="50" relative="1" as="geometry">
            <mxPoint x="390" y="310" as="sourcePoint" />
            <mxPoint x="310" y="260" as="targetPoint" />
          </mxGeometry>
        </mxCell>
        <mxCell id="gAnLOvwSJcXtLlbk8rEZ-6" value="Sends relevant information" style="text;html=1;strokeColor=none;fillColor=none;align=center;verticalAlign=middle;whiteSpace=wrap;rounded=0;" parent="1" vertex="1">
          <mxGeometry x="180" y="230" width="40" height="20" as="geometry" />
        </mxCell>
        <mxCell id="gAnLOvwSJcXtLlbk8rEZ-7" style="edgeStyle=orthogonalEdgeStyle;rounded=0;orthogonalLoop=1;jettySize=auto;html=1;exitX=0.5;exitY=1;exitDx=0;exitDy=0;" parent="1" source="gAnLOvwSJcXtLlbk8rEZ-6" target="gAnLOvwSJcXtLlbk8rEZ-6" edge="1">
          <mxGeometry relative="1" as="geometry" />
        </mxCell>
        <mxCell id="gAnLOvwSJcXtLlbk8rEZ-9" value="" style="endArrow=classic;html=1;" parent="1" edge="1">
          <mxGeometry width="50" height="50" relative="1" as="geometry">
            <mxPoint x="309" y="330" as="sourcePoint" />
            <mxPoint x="112" y="330" as="targetPoint" />
          </mxGeometry>
        </mxCell>
        <mxCell id="gAnLOvwSJcXtLlbk8rEZ-10" value="Send relevant documents" style="text;html=1;strokeColor=none;fillColor=none;align=center;verticalAlign=middle;whiteSpace=wrap;rounded=0;" parent="1" vertex="1">
          <mxGeometry x="180" y="300" width="40" height="20" as="geometry" />
        </mxCell>
        <mxCell id="gAnLOvwSJcXtLlbk8rEZ-11" value="" style="endArrow=none;dashed=1;html=1;exitX=0.414;exitY=1.023;exitDx=0;exitDy=0;exitPerimeter=0;entryX=0;entryY=0.5;entryDx=0;entryDy=0;" parent="1" source="gAnLOvwSJcXtLlbk8rEZ-2" target="gAnLOvwSJcXtLlbk8rEZ-4" edge="1">
          <mxGeometry width="50" height="50" relative="1" as="geometry">
            <mxPoint x="720" y="450" as="sourcePoint" />
            <mxPoint x="370" y="240" as="targetPoint" />
          </mxGeometry>
        </mxCell>
        <mxCell id="gAnLOvwSJcXtLlbk8rEZ-12" value="" style="endArrow=none;dashed=1;html=1;entryX=0;entryY=0.5;entryDx=0;entryDy=0;" parent="1" source="gAnLOvwSJcXtLlbk8rEZ-1" target="gAnLOvwSJcXtLlbk8rEZ-3" edge="1">
          <mxGeometry width="50" height="50" relative="1" as="geometry">
            <mxPoint x="100" y="200" as="sourcePoint" />
            <mxPoint x="100.31999999999994" y="268.62" as="targetPoint" />
          </mxGeometry>
        </mxCell>
        <mxCell id="gAnLOvwSJcXtLlbk8rEZ-13" value="Created by: Dhruvi Khankhoje(23), Aayush Halgekar(2), Ashish Rao(11),&lt;br&gt;&amp;nbsp;Ishaan Khetan(35)&lt;br&gt;&amp;nbsp;" style="shape=note;whiteSpace=wrap;html=1;backgroundOutline=1;darkOpacity=0.05;" parent="1" vertex="1">
          <mxGeometry x="90" y="10" width="460" height="60" as="geometry" />
        </mxCell>
        <mxCell id="gAnLOvwSJcXtLlbk8rEZ-14" value="Model" style="rounded=1;whiteSpace=wrap;html=1;" parent="1" vertex="1">
          <mxGeometry x="470" y="100" width="120" height="60" as="geometry" />
        </mxCell>
        <mxCell id="gAnLOvwSJcXtLlbk8rEZ-15" value="" style="rounded=1;whiteSpace=wrap;html=1;direction=south;" parent="1" vertex="1">
          <mxGeometry x="520" y="230" width="20" height="120" as="geometry" />
        </mxCell>
        <mxCell id="gAnLOvwSJcXtLlbk8rEZ-16" value="" style="endArrow=classic;html=1;exitX=0.25;exitY=0;exitDx=0;exitDy=0;entryX=0.25;entryY=1;entryDx=0;entryDy=0;" parent="1" source="gAnLOvwSJcXtLlbk8rEZ-4" target="gAnLOvwSJcXtLlbk8rEZ-15" edge="1">
          <mxGeometry width="50" height="50" relative="1" as="geometry">
            <mxPoint x="360" y="350" as="sourcePoint" />
            <mxPoint x="410" y="300" as="targetPoint" />
          </mxGeometry>
        </mxCell>
        <mxCell id="gAnLOvwSJcXtLlbk8rEZ-17" value="Requests relevant documents" style="text;html=1;strokeColor=none;fillColor=none;align=center;verticalAlign=middle;whiteSpace=wrap;rounded=0;" parent="1" vertex="1">
          <mxGeometry x="400" y="230" width="40" height="20" as="geometry" />
        </mxCell>
        <mxCell id="gAnLOvwSJcXtLlbk8rEZ-19" value="" style="endArrow=classic;html=1;entryX=0.826;entryY=0.034;entryDx=0;entryDy=0;entryPerimeter=0;exitX=0.828;exitY=1.014;exitDx=0;exitDy=0;exitPerimeter=0;" parent="1" source="gAnLOvwSJcXtLlbk8rEZ-15" target="gAnLOvwSJcXtLlbk8rEZ-4" edge="1">
          <mxGeometry width="50" height="50" relative="1" as="geometry">
            <mxPoint x="360" y="340" as="sourcePoint" />
            <mxPoint x="410" y="290" as="targetPoint" />
          </mxGeometry>
        </mxCell>
        <mxCell id="gAnLOvwSJcXtLlbk8rEZ-20" value="Sends relevant documents" style="text;html=1;strokeColor=none;fillColor=none;align=center;verticalAlign=middle;whiteSpace=wrap;rounded=0;" parent="1" vertex="1">
          <mxGeometry x="400" y="300" width="40" height="20" as="geometry" />
        </mxCell>
        <mxCell id="gAnLOvwSJcXtLlbk8rEZ-22" value="" style="endArrow=none;dashed=1;html=1;exitX=0.414;exitY=1.023;exitDx=0;exitDy=0;exitPerimeter=0;entryX=0;entryY=0.5;entryDx=0;entryDy=0;" parent="1" edge="1">
          <mxGeometry width="50" height="50" relative="1" as="geometry">
            <mxPoint x="529.58" y="160" as="sourcePoint" />
            <mxPoint x="529.9" y="228.62" as="targetPoint" />
          </mxGeometry>
        </mxCell>
        <mxCell id="gAnLOvwSJcXtLlbk8rEZ-23" style="edgeStyle=orthogonalEdgeStyle;rounded=0;orthogonalLoop=1;jettySize=auto;html=1;exitX=0.5;exitY=1;exitDx=0;exitDy=0;exitPerimeter=0;" parent="1" source="gAnLOvwSJcXtLlbk8rEZ-13" target="gAnLOvwSJcXtLlbk8rEZ-13" edge="1">
          <mxGeometry relative="1" as="geometry" />
        </mxCell>
        <mxCell id="gAnLOvwSJcXtLlbk8rEZ-24" style="edgeStyle=orthogonalEdgeStyle;rounded=0;orthogonalLoop=1;jettySize=auto;html=1;exitX=0.5;exitY=1;exitDx=0;exitDy=0;exitPerimeter=0;" parent="1" source="gAnLOvwSJcXtLlbk8rEZ-13" target="gAnLOvwSJcXtLlbk8rEZ-13" edge="1">
          <mxGeometry relative="1" as="geometry" />
        </mxCell>
      </root>
    </mxGraphModel>
  </diagram>
  <diagram id="UmFYU-orr_nvWtnA_qLD" name="Page-2">
    <mxGraphModel dx="1038" dy="548" grid="1" gridSize="10" guides="1" tooltips="1" connect="1" arrows="1" fold="1" page="1" pageScale="1" pageWidth="827" pageHeight="1169" math="0" shadow="0">
      <root>
        <mxCell id="NPBLe0_TlnbwwwRlPYlt-0" />
        <mxCell id="NPBLe0_TlnbwwwRlPYlt-1" parent="NPBLe0_TlnbwwwRlPYlt-0" />
        <mxCell id="NPBLe0_TlnbwwwRlPYlt-2" value="User" style="rounded=0;whiteSpace=wrap;html=1;" parent="NPBLe0_TlnbwwwRlPYlt-1" vertex="1">
          <mxGeometry x="660" y="120" width="120" height="60" as="geometry" />
        </mxCell>
        <mxCell id="NPBLe0_TlnbwwwRlPYlt-3" value="Application" style="rounded=0;whiteSpace=wrap;html=1;" parent="NPBLe0_TlnbwwwRlPYlt-1" vertex="1">
          <mxGeometry x="400" y="120" width="120" height="60" as="geometry" />
        </mxCell>
        <mxCell id="NPBLe0_TlnbwwwRlPYlt-4" value="" style="endArrow=none;html=1;entryX=1;entryY=0.5;entryDx=0;entryDy=0;exitX=0;exitY=0.5;exitDx=0;exitDy=0;" parent="NPBLe0_TlnbwwwRlPYlt-1" source="NPBLe0_TlnbwwwRlPYlt-2" target="NPBLe0_TlnbwwwRlPYlt-3" edge="1">
          <mxGeometry width="50" height="50" relative="1" as="geometry">
            <mxPoint x="380" y="240" as="sourcePoint" />
            <mxPoint x="430" y="190" as="targetPoint" />
          </mxGeometry>
        </mxCell>
        <mxCell id="NPBLe0_TlnbwwwRlPYlt-5" value="" style="endArrow=classic;html=1;" parent="NPBLe0_TlnbwwwRlPYlt-1" edge="1">
          <mxGeometry width="50" height="50" relative="1" as="geometry">
            <mxPoint x="550" y="170" as="sourcePoint" />
            <mxPoint x="620" y="170" as="targetPoint" />
          </mxGeometry>
        </mxCell>
        <mxCell id="NPBLe0_TlnbwwwRlPYlt-6" value="" style="endArrow=classic;html=1;" parent="NPBLe0_TlnbwwwRlPYlt-1" edge="1">
          <mxGeometry width="50" height="50" relative="1" as="geometry">
            <mxPoint x="620" y="130" as="sourcePoint" />
            <mxPoint x="550" y="130" as="targetPoint" />
          </mxGeometry>
        </mxCell>
        <mxCell id="NPBLe0_TlnbwwwRlPYlt-7" value="Model" style="rounded=0;whiteSpace=wrap;html=1;" parent="NPBLe0_TlnbwwwRlPYlt-1" vertex="1">
          <mxGeometry x="190" y="120" width="120" height="60" as="geometry" />
        </mxCell>
        <mxCell id="NPBLe0_TlnbwwwRlPYlt-8" value="" style="endArrow=none;html=1;exitX=0;exitY=0.5;exitDx=0;exitDy=0;entryX=1;entryY=0.5;entryDx=0;entryDy=0;" parent="NPBLe0_TlnbwwwRlPYlt-1" source="NPBLe0_TlnbwwwRlPYlt-3" target="NPBLe0_TlnbwwwRlPYlt-7" edge="1">
          <mxGeometry width="50" height="50" relative="1" as="geometry">
            <mxPoint x="480" y="210" as="sourcePoint" />
            <mxPoint x="530" y="160" as="targetPoint" />
          </mxGeometry>
        </mxCell>
        <mxCell id="NPBLe0_TlnbwwwRlPYlt-9" value="" style="endArrow=classic;html=1;" parent="NPBLe0_TlnbwwwRlPYlt-1" edge="1">
          <mxGeometry width="50" height="50" relative="1" as="geometry">
            <mxPoint x="330" y="170" as="sourcePoint" />
            <mxPoint x="380" y="170" as="targetPoint" />
          </mxGeometry>
        </mxCell>
        <mxCell id="NPBLe0_TlnbwwwRlPYlt-10" value="" style="endArrow=classic;html=1;" parent="NPBLe0_TlnbwwwRlPYlt-1" edge="1">
          <mxGeometry width="50" height="50" relative="1" as="geometry">
            <mxPoint x="380" y="130" as="sourcePoint" />
            <mxPoint x="330" y="130" as="targetPoint" />
          </mxGeometry>
        </mxCell>
        <mxCell id="NPBLe0_TlnbwwwRlPYlt-11" value="1.Request Information()&lt;br&gt;6. Terminate()" style="text;html=1;strokeColor=none;fillColor=none;align=center;verticalAlign=middle;whiteSpace=wrap;rounded=0;" parent="NPBLe0_TlnbwwwRlPYlt-1" vertex="1">
          <mxGeometry x="520" y="190" width="140" height="20" as="geometry" />
        </mxCell>
        <mxCell id="NPBLe0_TlnbwwwRlPYlt-12" value="2. Enter Information()" style="text;html=1;strokeColor=none;fillColor=none;align=center;verticalAlign=middle;whiteSpace=wrap;rounded=0;" parent="NPBLe0_TlnbwwwRlPYlt-1" vertex="1">
          <mxGeometry x="520" y="90" width="140" height="20" as="geometry" />
        </mxCell>
        <mxCell id="NPBLe0_TlnbwwwRlPYlt-13" value="3. Request Information()&lt;br&gt;5. Send relevant Documents with summary()" style="text;html=1;strokeColor=none;fillColor=none;align=center;verticalAlign=middle;whiteSpace=wrap;rounded=0;" parent="NPBLe0_TlnbwwwRlPYlt-1" vertex="1">
          <mxGeometry x="270" y="200" width="170" height="20" as="geometry" />
        </mxCell>
        <mxCell id="NPBLe0_TlnbwwwRlPYlt-17" value="4. Send Information()" style="text;html=1;strokeColor=none;fillColor=none;align=center;verticalAlign=middle;whiteSpace=wrap;rounded=0;" parent="NPBLe0_TlnbwwwRlPYlt-1" vertex="1">
          <mxGeometry x="290" y="90" width="140" height="20" as="geometry" />
        </mxCell>
        <mxCell id="KkNnFSETL60K0H2yuDe7-0" value="Created by: Dhruvi Khankhoje(23), Aayush Halgekar(2), Ashish Rao(11),&lt;br&gt;&amp;nbsp;Ishaan Khetan(35)&lt;br&gt;&amp;nbsp;" style="shape=note;whiteSpace=wrap;html=1;backgroundOutline=1;darkOpacity=0.05;" parent="NPBLe0_TlnbwwwRlPYlt-1" vertex="1">
          <mxGeometry x="260" y="10" width="460" height="60" as="geometry" />
        </mxCell>
      </root>
    </mxGraphModel>
  </diagram>
  <diagram id="DoIf3c-THR1b6-t5AquG" name="Page-3">
    <mxGraphModel dx="1221" dy="645" grid="1" gridSize="10" guides="1" tooltips="1" connect="1" arrows="1" fold="1" page="1" pageScale="1" pageWidth="827" pageHeight="1169" math="0" shadow="0">
      <root>
        <mxCell id="CGkbaX1TzPr39gBYmJRN-0" />
        <mxCell id="CGkbaX1TzPr39gBYmJRN-1" parent="CGkbaX1TzPr39gBYmJRN-0" />
        <mxCell id="CGkbaX1TzPr39gBYmJRN-2" value="User" style="swimlane;fontStyle=2;align=center;verticalAlign=top;childLayout=stackLayout;horizontal=1;startSize=26;horizontalStack=0;resizeParent=1;resizeLast=0;collapsible=1;marginBottom=0;rounded=0;shadow=0;strokeWidth=1;" vertex="1" parent="CGkbaX1TzPr39gBYmJRN-1">
          <mxGeometry x="120" y="20" width="160" height="138" as="geometry">
            <mxRectangle x="230" y="140" width="160" height="26" as="alternateBounds" />
          </mxGeometry>
        </mxCell>
        <mxCell id="CGkbaX1TzPr39gBYmJRN-3" value="Name" style="text;align=left;verticalAlign=top;spacingLeft=4;spacingRight=4;overflow=hidden;rotatable=0;points=[[0,0.5],[1,0.5]];portConstraint=eastwest;" vertex="1" parent="CGkbaX1TzPr39gBYmJRN-2">
          <mxGeometry y="26" width="160" height="26" as="geometry" />
        </mxCell>
        <mxCell id="CGkbaX1TzPr39gBYmJRN-4" value="Phone Number" style="text;align=left;verticalAlign=top;spacingLeft=4;spacingRight=4;overflow=hidden;rotatable=0;points=[[0,0.5],[1,0.5]];portConstraint=eastwest;rounded=0;shadow=0;html=0;" vertex="1" parent="CGkbaX1TzPr39gBYmJRN-2">
          <mxGeometry y="52" width="160" height="26" as="geometry" />
        </mxCell>
        <mxCell id="CGkbaX1TzPr39gBYmJRN-5" value="Email Address" style="text;align=left;verticalAlign=top;spacingLeft=4;spacingRight=4;overflow=hidden;rotatable=0;points=[[0,0.5],[1,0.5]];portConstraint=eastwest;rounded=0;shadow=0;html=0;" vertex="1" parent="CGkbaX1TzPr39gBYmJRN-2">
          <mxGeometry y="78" width="160" height="26" as="geometry" />
        </mxCell>
        <mxCell id="CGkbaX1TzPr39gBYmJRN-6" value="" style="line;html=1;strokeWidth=1;align=left;verticalAlign=middle;spacingTop=-1;spacingLeft=3;spacingRight=3;rotatable=0;labelPosition=right;points=[];portConstraint=eastwest;" vertex="1" parent="CGkbaX1TzPr39gBYmJRN-2">
          <mxGeometry y="104" width="160" height="8" as="geometry" />
        </mxCell>
        <mxCell id="CGkbaX1TzPr39gBYmJRN-7" value="Information()" style="text;align=left;verticalAlign=top;spacingLeft=4;spacingRight=4;overflow=hidden;rotatable=0;points=[[0,0.5],[1,0.5]];portConstraint=eastwest;" vertex="1" parent="CGkbaX1TzPr39gBYmJRN-2">
          <mxGeometry y="112" width="160" height="26" as="geometry" />
        </mxCell>
        <mxCell id="CGkbaX1TzPr39gBYmJRN-8" value="Documents" style="swimlane;fontStyle=0;align=center;verticalAlign=top;childLayout=stackLayout;horizontal=1;startSize=26;horizontalStack=0;resizeParent=1;resizeLast=0;collapsible=1;marginBottom=0;rounded=0;shadow=0;strokeWidth=1;" vertex="1" parent="CGkbaX1TzPr39gBYmJRN-1">
          <mxGeometry x="210" y="190" width="160" height="200" as="geometry">
            <mxRectangle x="130" y="380" width="160" height="26" as="alternateBounds" />
          </mxGeometry>
        </mxCell>
        <mxCell id="CGkbaX1TzPr39gBYmJRN-9" value="Unique ID" style="text;align=left;verticalAlign=top;spacingLeft=4;spacingRight=4;overflow=hidden;rotatable=0;points=[[0,0.5],[1,0.5]];portConstraint=eastwest;" vertex="1" parent="CGkbaX1TzPr39gBYmJRN-8">
          <mxGeometry y="26" width="160" height="26" as="geometry" />
        </mxCell>
        <mxCell id="CGkbaX1TzPr39gBYmJRN-10" value="Text&#xa;&#xa;Summary" style="text;align=left;verticalAlign=top;spacingLeft=4;spacingRight=4;overflow=hidden;rotatable=0;points=[[0,0.5],[1,0.5]];portConstraint=eastwest;rounded=0;shadow=0;html=0;" vertex="1" parent="CGkbaX1TzPr39gBYmJRN-8">
          <mxGeometry y="52" width="160" height="58" as="geometry" />
        </mxCell>
        <mxCell id="CGkbaX1TzPr39gBYmJRN-11" value="" style="line;html=1;strokeWidth=1;align=left;verticalAlign=middle;spacingTop=-1;spacingLeft=3;spacingRight=3;rotatable=0;labelPosition=right;points=[];portConstraint=eastwest;" vertex="1" parent="CGkbaX1TzPr39gBYmJRN-8">
          <mxGeometry y="110" width="160" height="52" as="geometry" />
        </mxCell>
        <mxCell id="CGkbaX1TzPr39gBYmJRN-12" value="modifies()" style="text;align=left;verticalAlign=top;spacingLeft=4;spacingRight=4;overflow=hidden;rotatable=0;points=[[0,0.5],[1,0.5]];portConstraint=eastwest;fontStyle=4" vertex="1" parent="CGkbaX1TzPr39gBYmJRN-8">
          <mxGeometry y="162" width="160" height="26" as="geometry" />
        </mxCell>
        <mxCell id="CGkbaX1TzPr39gBYmJRN-14" value="" style="endArrow=block;endSize=10;endFill=0;shadow=0;strokeWidth=1;rounded=0;edgeStyle=elbowEdgeStyle;elbow=vertical;entryX=0.455;entryY=0.99;entryDx=0;entryDy=0;entryPerimeter=0;" edge="1" parent="CGkbaX1TzPr39gBYmJRN-1" source="CGkbaX1TzPr39gBYmJRN-8" target="CGkbaX1TzPr39gBYmJRN-39">
          <mxGeometry width="160" relative="1" as="geometry">
            <mxPoint x="100" y="103" as="sourcePoint" />
            <mxPoint x="620" y="350" as="targetPoint" />
            <Array as="points">
              <mxPoint x="560" y="413" />
            </Array>
          </mxGeometry>
        </mxCell>
        <mxCell id="CGkbaX1TzPr39gBYmJRN-19" value="Application" style="swimlane;fontStyle=0;align=center;verticalAlign=top;childLayout=stackLayout;horizontal=1;startSize=26;horizontalStack=0;resizeParent=1;resizeLast=0;collapsible=1;marginBottom=0;rounded=0;shadow=0;strokeWidth=1;" vertex="1" parent="CGkbaX1TzPr39gBYmJRN-1">
          <mxGeometry x="408" y="20" width="160" height="110" as="geometry">
            <mxRectangle x="550" y="140" width="160" height="26" as="alternateBounds" />
          </mxGeometry>
        </mxCell>
        <mxCell id="CGkbaX1TzPr39gBYmJRN-21" value="Query" style="text;align=left;verticalAlign=top;spacingLeft=4;spacingRight=4;overflow=hidden;rotatable=0;points=[[0,0.5],[1,0.5]];portConstraint=eastwest;rounded=0;shadow=0;html=0;" vertex="1" parent="CGkbaX1TzPr39gBYmJRN-19">
          <mxGeometry y="26" width="160" height="26" as="geometry" />
        </mxCell>
        <mxCell id="CGkbaX1TzPr39gBYmJRN-25" value="" style="line;html=1;strokeWidth=1;align=left;verticalAlign=middle;spacingTop=-1;spacingLeft=3;spacingRight=3;rotatable=0;labelPosition=right;points=[];portConstraint=eastwest;" vertex="1" parent="CGkbaX1TzPr39gBYmJRN-19">
          <mxGeometry y="52" width="160" height="8" as="geometry" />
        </mxCell>
        <mxCell id="CGkbaX1TzPr39gBYmJRN-27" value="Requestrelevantdoc()" style="text;align=left;verticalAlign=top;spacingLeft=4;spacingRight=4;overflow=hidden;rotatable=0;points=[[0,0.5],[1,0.5]];portConstraint=eastwest;" vertex="1" parent="CGkbaX1TzPr39gBYmJRN-19">
          <mxGeometry y="60" width="160" height="26" as="geometry" />
        </mxCell>
        <mxCell id="CGkbaX1TzPr39gBYmJRN-28" value="" style="endArrow=open;shadow=0;strokeWidth=1;rounded=0;endFill=1;edgeStyle=elbowEdgeStyle;elbow=vertical;" edge="1" parent="CGkbaX1TzPr39gBYmJRN-1" source="CGkbaX1TzPr39gBYmJRN-2" target="CGkbaX1TzPr39gBYmJRN-19">
          <mxGeometry x="0.5" y="41" relative="1" as="geometry">
            <mxPoint x="280" y="92" as="sourcePoint" />
            <mxPoint x="440" y="92" as="targetPoint" />
            <mxPoint x="-40" y="32" as="offset" />
          </mxGeometry>
        </mxCell>
        <mxCell id="CGkbaX1TzPr39gBYmJRN-32" value="Model" style="swimlane;fontStyle=0;align=center;verticalAlign=top;childLayout=stackLayout;horizontal=1;startSize=26;horizontalStack=0;resizeParent=1;resizeLast=0;collapsible=1;marginBottom=0;rounded=0;shadow=0;strokeWidth=1;" vertex="1" parent="CGkbaX1TzPr39gBYmJRN-1">
          <mxGeometry x="550" y="210" width="160" height="130" as="geometry">
            <mxRectangle x="550" y="140" width="160" height="26" as="alternateBounds" />
          </mxGeometry>
        </mxCell>
        <mxCell id="CGkbaX1TzPr39gBYmJRN-33" value="Query" style="text;align=left;verticalAlign=top;spacingLeft=4;spacingRight=4;overflow=hidden;rotatable=0;points=[[0,0.5],[1,0.5]];portConstraint=eastwest;" vertex="1" parent="CGkbaX1TzPr39gBYmJRN-32">
          <mxGeometry y="26" width="160" height="26" as="geometry" />
        </mxCell>
        <mxCell id="CGkbaX1TzPr39gBYmJRN-38" value="" style="line;html=1;strokeWidth=1;align=left;verticalAlign=middle;spacingTop=-1;spacingLeft=3;spacingRight=3;rotatable=0;labelPosition=right;points=[];portConstraint=eastwest;" vertex="1" parent="CGkbaX1TzPr39gBYmJRN-32">
          <mxGeometry y="52" width="160" height="8" as="geometry" />
        </mxCell>
        <mxCell id="CGkbaX1TzPr39gBYmJRN-39" value="Send relevant doc()&#xa;&#xa;Send Summary()" style="text;align=left;verticalAlign=top;spacingLeft=4;spacingRight=4;overflow=hidden;rotatable=0;points=[[0,0.5],[1,0.5]];portConstraint=eastwest;" vertex="1" parent="CGkbaX1TzPr39gBYmJRN-32">
          <mxGeometry y="60" width="160" height="68" as="geometry" />
        </mxCell>
        <mxCell id="CGkbaX1TzPr39gBYmJRN-42" value="" style="endArrow=none;html=1;entryX=1;entryY=0.5;entryDx=0;entryDy=0;exitX=0.5;exitY=0;exitDx=0;exitDy=0;" edge="1" parent="CGkbaX1TzPr39gBYmJRN-1" source="CGkbaX1TzPr39gBYmJRN-32" target="CGkbaX1TzPr39gBYmJRN-27">
          <mxGeometry width="50" height="50" relative="1" as="geometry">
            <mxPoint x="410" y="270" as="sourcePoint" />
            <mxPoint x="460" y="220" as="targetPoint" />
            <Array as="points">
              <mxPoint x="630" y="210" />
            </Array>
          </mxGeometry>
        </mxCell>
        <mxCell id="CGkbaX1TzPr39gBYmJRN-43" value="Administrator" style="swimlane;fontStyle=0;align=center;verticalAlign=top;childLayout=stackLayout;horizontal=1;startSize=26;horizontalStack=0;resizeParent=1;resizeLast=0;collapsible=1;marginBottom=0;rounded=0;shadow=0;strokeWidth=1;" vertex="1" parent="CGkbaX1TzPr39gBYmJRN-1">
          <mxGeometry x="100" y="500" width="160" height="130" as="geometry">
            <mxRectangle x="550" y="140" width="160" height="26" as="alternateBounds" />
          </mxGeometry>
        </mxCell>
        <mxCell id="CGkbaX1TzPr39gBYmJRN-45" value="" style="line;html=1;strokeWidth=1;align=left;verticalAlign=middle;spacingTop=-1;spacingLeft=3;spacingRight=3;rotatable=0;labelPosition=right;points=[];portConstraint=eastwest;" vertex="1" parent="CGkbaX1TzPr39gBYmJRN-43">
          <mxGeometry y="26" width="160" height="24" as="geometry" />
        </mxCell>
        <mxCell id="CGkbaX1TzPr39gBYmJRN-46" value="Add documents()&#xa;Delete documents()&#xa;Edit Documents()" style="text;align=left;verticalAlign=top;spacingLeft=4;spacingRight=4;overflow=hidden;rotatable=0;points=[[0,0.5],[1,0.5]];portConstraint=eastwest;" vertex="1" parent="CGkbaX1TzPr39gBYmJRN-43">
          <mxGeometry y="50" width="160" height="70" as="geometry" />
        </mxCell>
        <mxCell id="CGkbaX1TzPr39gBYmJRN-49" value="" style="endArrow=block;endSize=10;endFill=0;shadow=0;strokeWidth=1;rounded=0;edgeStyle=elbowEdgeStyle;elbow=vertical;exitX=0.5;exitY=0;exitDx=0;exitDy=0;" edge="1" parent="CGkbaX1TzPr39gBYmJRN-1" source="CGkbaX1TzPr39gBYmJRN-43">
          <mxGeometry width="160" relative="1" as="geometry">
            <mxPoint x="300" y="400" as="sourcePoint" />
            <mxPoint x="230" y="390" as="targetPoint" />
            <Array as="points">
              <mxPoint x="570" y="423" />
            </Array>
          </mxGeometry>
        </mxCell>
      </root>
    </mxGraphModel>
  </diagram>
</mxfile>
